<?xml version="1.0" encoding="UTF-8"?>
<svg id="Livello_2" data-name="Livello 2" xmlns="http://www.w3.org/2000/svg" viewBox="0 0 516.14 128.24">
  <defs>
    <style>
      .cls-1 {
        fill: #fff;
      }
    </style>
  </defs>
  <g id="Logo">
    <g>
      <path class="cls-1" d="M74.96,62.67h0c5.01-5.92,7.55-13.82,7.55-23.49,0-11.19-3.16-19.96-9.39-26.08-6.22-6.09-15.03-9.18-26.19-9.18H0v122.05h19.15v-52.18h16.48l28.85,52.18h23.55l-29.53-53.46s0,0,0,0c6.84-1.71,12.37-5,16.47-9.84ZM19.15,22.26h27.78c5.45,0,9.45,1.38,12.25,4.22,2.77,2.82,4.18,7.09,4.18,12.7v.12c.18,5.4-1.06,9.35-3.82,12.05-2.76,2.72-7.01,4.1-12.62,4.1h-27.78V22.26Z"/>
      <polygon class="cls-1" points="152.4 36.56 104.73 36.56 104.73 54.9 133.25 54.9 133.25 107.63 100.28 107.63 100.28 125.97 185.04 125.97 185.04 107.63 152.4 107.63 152.4 36.56"/>
      <rect class="cls-1" x="125.79" width="26.6" height="26.6"/>
      <path class="cls-1" d="M220.57,106.27h0c-2.21-.73-3.61-1.86-4.39-3.56-.97-2.12-1.46-5.39-1.46-9.72v-38.28h66.77v-18.34h-66.77V1h-19.15v35.37h-26.41v18.34h26.41v39.9c0,11.83,3.21,20.17,9.54,24.78,5.98,4.37,14.53,6.59,25.4,6.59h19.05v-18.34h-16.79c-5.33,0-9.44-.46-12.2-1.37Z"/>
      <path class="cls-1" d="M318.73,107.63h-19.19c-5.36,0-9.41-.54-12.06-1.61-2.23-.9-3.71-2.21-4.52-4.02-.98-2.18-1.48-5.21-1.48-9.02v-56.2h-19.15v57.82c0,10.89,3.16,18.98,9.4,24.03,6.02,4.87,14.61,7.34,25.54,7.34h40.61V36.37h-19.15v71.27Z"/>
      <path class="cls-1" d="M354.74,55.12h47.81v13.14c-1.46-.8-3.12-1.52-5.01-2.17-4.61-1.58-9.71-2.38-15.15-2.38-6.87,0-13.1,1.31-18.52,3.91-5.54,2.65-9.92,6.43-13.02,11.23-3.11,4.82-4.69,10.4-4.69,16.56s1.63,12.15,4.85,17.13c3.19,4.95,7.64,8.85,13.22,11.61,5.49,2.71,11.87,4.09,18.97,4.09,4.56,0,9.12-.97,13.54-2.88,2.1-.91,4.04-1.94,5.81-3.08v3.69s19.15,0,19.15,0V36.79h-66.95v18.34ZM402.55,95.41c0,4.2-1.66,7.54-5.06,10.21h0c-3.67,2.88-8.34,4.28-14.29,4.28-5.47,0-9.77-1.38-13.15-4.21-3.19-2.67-4.74-6.04-4.74-10.28,0-3.9,1.46-6.99,4.47-9.44,3.22-2.63,7.35-3.91,12.61-3.91,6.24,0,11.31,1.36,15.06,4.04,3.48,2.49,5.1,5.45,5.1,9.31Z"/>
      <polygon class="cls-1" points="483.5 107.63 483.5 1.17 439.08 1.17 439.08 19.51 464.36 19.51 464.36 107.63 434.63 107.63 434.63 125.97 516.14 125.97 516.14 107.63 483.5 107.63"/>
    </g>
  </g>
</svg>